<svg xmlns="http://www.w3.org/2000/svg" viewBox="0 0 263.56 425.39"><defs><style>.cls-1,.cls-2{stroke-linecap:round;stroke-linejoin:round;stroke-width:1.2px}.cls-1,.cls-2,.cls-3{fill:none}.cls-1,.cls-4{stroke:#a8a8a8}.cls-2{stroke:#231815}.cls-3{stroke:#fff;stroke-width:5.67px}.cls-4{stroke-miterlimit:10}.cls-4,.cls-5{fill:#fff}.cls-6{fill:#231815}.cls-10,.cls-11,.cls-12,.cls-13,.cls-5,.cls-6,.cls-8,.cls-9{stroke-width:0}.cls-8{fill:#7d6b55}.cls-9{fill:#00a0e9}.cls-10{fill:#e60012}.cls-11{fill:#ed6d1f}.cls-12{fill:#fdd000}.cls-13{fill:#e8ba41}</style></defs><path class="cls-8" d="M107.75 249.46c2.24 0 4.06 1.15 4.06 2.57s-1.82 2.56-4.06 2.56-4.07-1.15-4.07-2.56 1.82-2.57 4.07-2.57Z"/><path class="cls-10" d="M226.03 237.98c6.35 0 11.5 5.15 11.5 11.5s-5.15 11.5-11.5 11.5c-.65 0-1.29-.06-1.92-.16-1.07-4.91-2.42-9.81-4.11-13.84-.72-1.72-1.58-3.44-2.56-5.15a11.5 11.5 0 0 1 8.59-3.85Z"/><path class="cls-12" d="M123.37 243.66c.08.62.13 1.26.13 1.9 0 7.87-6.44 14.25-14.38 14.25-7.44 0-13.56-5.61-14.3-12.79l.03-.08c7.52 2.81 23.59-.08 28.52-3.28Zm-11.56 8.37c0-1.42-1.82-2.57-4.06-2.57s-4.07 1.15-4.07 2.57 1.82 2.56 4.07 2.56 4.06-1.15 4.06-2.56Z"/><path class="cls-12" d="M122.1 239.42c1.96-.42 3.45 2.82 1.27 4.24-4.93 3.2-21 6.09-28.52 3.28h-.04c-3.81-1.43-2.09-4.52.18-4 8.38 1.94 21.89-.56 26.51-3.28.2-.12.4-.2.6-.23Z"/><path class="cls-12" d="M122.1 239.42c-.2.03-.4.11-.6.23-4.62 2.72-18.13 5.22-26.51 3.28.61-3.24 2.32-6.09 4.73-8.14 2.52-2.17 5.8-3.48 9.4-3.48 3.3 0 6.34 1.1 8.77 2.96 1.78 1.35 3.23 3.12 4.21 5.15Z"/><path class="cls-13" d="M145.51 20.03c5.94 1.17 10.34 4.23 9.83 6.85-.26 1.34-1.77 2.31-3.98 2.77 1.02-.29 1.68-.74 1.8-1.34.32-1.63-3.42-3.74-8.35-4.71-4.94-.97-9.2-.43-9.52 1.2-.11.57.27 1.2 1.03 1.82-1.78-1.23-2.75-2.65-2.5-3.96.52-2.62 5.75-3.79 11.69-2.63Z"/><path class="cls-6" d="M120.2 95.3c.73.24 1.12 1.04.87 1.77-.19.58-.74.95-1.32.95-.15 0-.3-.02-.45-.07-4.71-1.59-11.8-1.49-16.45-.92-.54.06-1.05-.18-1.34-.63-.29-.45-.3-1.03-.02-1.49 3.65-6.06 11.89-8.8 15.47-9.12.76-.07 1.45.5 1.52 1.27.07.77-.5 1.45-1.27 1.52-2.77.25-7.71 2.08-11.31 5.37 3.75-.21 9.66-.22 14.3 1.35ZM91.54 80.89c2.86.56 4.31 5.17 3.24 10.31-1.08 5.13-4.26 8.85-7.12 8.29-2.86-.55-4.31-5.16-3.24-10.3 1.07-5.13 4.26-8.85 7.12-8.3Zm1.01 10.97c.48-2.36-.03-4.44-1.17-4.66s-2.44 1.51-2.93 3.87c-.5 2.35.03 4.44 1.16 4.66 1.13.22 2.44-1.52 2.94-3.87Z"/><path class="cls-10" d="M93.22 103.87c4.45 1.82 7.58 6.19 7.58 11.3 0 6.74-5.47 12.21-12.22 12.21s-12.22-5.47-12.22-12.21c0-1.75.37-3.41 1.03-4.91 1.89-4.3 6.19-7.31 11.19-7.31 1.64 0 3.21.32 4.64.92Zm1.99 6.51c0-2.07-1.68-3.75-3.75-3.75s-3.75 1.68-3.75 3.75 1.68 3.75 3.75 3.75 3.75-1.68 3.75-3.75Z"/><path class="cls-11" d="M83.91 206.78c6.42-39.63 66.94-51.02 85.02-28.26-8.82 17.08-24.8 36.07-47.43 38.79-12.35 1.48-25.37-2.72-37.59-10.53Z"/><path class="cls-10" d="M187.13 201.18c2.49 0 2.41 4.29 2.24 5.6-.07.52-.22 1.05-.44 1.58-1.62 3.74-7.16 7.66-14.91 11.31-9.74 4.58-22.97 8.72-36.3 11.52h-.05c-5.74 1.21-11.5 2.16-17.01 2.79-.93.1-1.86.2-2.77.29a14.373 14.373 0 0 0-8.77-2.96c-3.6 0-6.88 1.31-9.4 3.48-2.55-.11-4.93-.3-7.14-.55-12.46-1.35-19.66-4.41-21.69-5.11-1.38-.48-2.45-1.5-3.2-2.75-1.02-1.7-1.43-3.83-1.18-5.65 9.39 4.54 32.32 8.09 55.17 5.53 14.33-1.61 28.16-5.41 39.47-9.83 13-5.07 22.67-10.95 25.96-15.23v-.02Zm-11.47-50.87c3.15.52.81 13.67-6.73 28.21-18.08-22.76-78.6-11.37-85.02 28.26-16.64-10.63-31.82-27.95-41.9-46.74 2.36.29 4.9.42 7.61.39 20.54-.24 114.53-12.02 126.04-10.12Z"/><path class="cls-9" d="M79.59 264.38h-.01c-11.91 3.62-31.9 6.68-37.6 6.67 2.14-3.06 3.39-6.78 3.39-10.8 0-7.09-3.9-13.27-9.67-16.51 5.71-5.6 23.34-14.96 31.99-17.36.75 1.25 1.82 2.27 3.2 2.75 2.03.7 9.23 3.76 21.69 5.11v.09c-10.42 5.05-15.6 23.56-11.96 32.42-.35-.78-.7-1.57-1.03-2.37Zm58.13-33.19c13.33-2.8 26.56-6.94 36.3-11.52-4.51 7.21-7.86 14.56-10.24 22.31-4.59-4.44-19.18-11.64-26.05-10.79Z"/><path class="cls-9" d="M187.97 269.19c-2.89-7.57-10.21-12.94-18.78-12.94-3.25 0-6.32.77-9.03 2.14.8-5.72 1.98-11.16 3.62-16.41 2.38-7.75 5.73-15.1 10.24-22.31 7.75-3.65 13.29-7.57 14.91-11.31 3.31 4.62 20.11 18.7 28.51 33.47.98 1.71 1.84 3.43 2.56 5.15 1.69 4.03 3.04 8.93 4.11 13.84 2.33 10.63 3.34 21.28 3.51 23.24.03.37.12.82.24 1.32.81 3.36 3.33 9.23 3.76 12.93 2.13 18.25-16.21 39.33-39.7 33.71-1.03-.25-2.06-.71-3.07-1.3-.29-.17-.57-.34-.85-.53-4.31-2.86-8.17-7.87-10-9.13-.33-.23-.85-.49-1.5-.76 0 5.34-10.25 12.87-19.25 13.76-3.5.34-6.98.02-9.81-.79-1.2-.34-3.32-1.26-5.12-2.79-.99-.85-1.88-1.84-2.64-2.7-.77-.87-1.38-1.58-1.79-1.85-7.01-4.59-15.06-8.22-23.56-15.45-4.84-4.12-9.53-8.62-13.91-13.55 16.04 15.21 49.38 18.6 70.58-.55 10.25-.91 18.29-9.53 18.29-20.02 0-2.53-.47-4.94-1.32-7.17Z"/><path class="cls-5" d="M246.5 306.31c3.83 19.67-.86 43.86-24.5 51.17-20.5 6.33-36-12.5-33.15-26.76 1.01.59 2.04 1.05 3.07 1.3 23.49 5.62 41.83-15.46 39.7-33.71-.43-3.7-2.95-9.57-3.76-12.93 8.91-.08 16.62 10.58 18.64 20.93Z"/><path class="cls-5" d="M188 330.19c1.5 17.25-9.5 31.87-25.13 32.5-23.19.92-26.8-28.65-23.19-34.91.76.86 1.65 1.85 2.64 2.7 1.8 1.53 3.92 2.45 5.12 2.79 2.83.81 6.31 1.13 9.81.79 9-.89 19.25-8.42 19.25-13.76.65.27 1.17.53 1.5.76 1.83 1.26 5.69 6.27 10 9.13ZM45.37 260.25c0 4.02-1.25 7.74-3.39 10.8a18.891 18.891 0 0 1-15.55 8.14c-10.45 0-18.93-8.48-18.93-18.94s8.48-18.94 18.93-18.94c3.37 0 6.53.88 9.27 2.43 5.77 3.24 9.67 9.42 9.67 16.51Zm142.6 8.94c.85 2.23 1.32 4.64 1.32 7.17 0 10.49-8.04 19.11-18.29 20.02-.6.05-1.2.08-1.81.08-11.11 0-20.11-9-20.11-20.1 0-7.86 4.51-14.67 11.08-17.97 2.71-1.37 5.78-2.14 9.03-2.14 8.57 0 15.89 5.37 18.78 12.94Z"/><path class="cls-5" d="M169.19 296.46c.61 0 1.21-.03 1.81-.08-21.2 19.15-54.54 15.76-70.58.55-7.79-8.7-14.65-18.71-19.8-30.18-3.64-8.86 1.54-27.37 11.95-32.42v-.09c2.22.25 4.6.44 7.15.55-2.41 2.05-4.12 4.9-4.73 8.13-2.27-.51-3.99 2.58-.18 4.01h.04l-.03.08c.74 7.18 6.86 12.79 14.3 12.79 7.94 0 14.38-6.38 14.38-14.25 0-.64-.05-1.28-.13-1.9 2.18-1.42.69-4.66-1.27-4.24-.98-2.03-2.43-3.8-4.21-5.15.91-.09 1.84-.19 2.77-.29 5.51-.63 11.27-1.58 17.01-2.79h.05c6.87-.85 21.46 6.35 26.05 10.79-1.64 5.25-2.82 10.69-3.62 16.41-6.57 3.3-11.08 10.11-11.08 17.97 0 11.1 9 20.1 20.11 20.1Z"/><circle class="cls-5" cx="91.46" cy="110.38" r="3.75"/><path class="cls-5" d="M91.38 87.19c1.13.22 1.65 2.3 1.17 4.66-.5 2.35-1.8 4.09-2.94 3.87-1.12-.22-1.65-2.31-1.16-4.66.48-2.37 1.79-4.09 2.93-3.87Z"/><path class="cls-5" d="M85.37 61.93c10.62 0 15.43 12.46 13.28 25.99-.21 1.29-.38 2.6-.53 3.92-.96 6.01-2.74 9.24-4.9 12.03-1.43-.6-3-.92-4.64-.92-5 0-9.3 3.01-11.19 7.31-9.04-.94-15.05-7.61-15.45-17.62-.07-1.65 0-3.39.26-5.21 1.84-13.5 10.11-25.5 23.17-25.5Zm9.41 29.27c1.07-5.14-.38-9.75-3.24-10.31-2.86-.55-6.05 3.17-7.12 8.3-1.07 5.14.38 9.75 3.24 10.3 2.86.56 6.04-3.16 7.12-8.29Z"/><path class="cls-5" d="M141.04 94.3c-.48 2.25-1.24 4.48-2.29 6.63-6.83 13.98-22.13 17.54-32.38 11.26-9.06-5.56-8.9-14.46-8.25-20.35.15-1.32.32-2.63.53-3.92 2.3-14.18 8.62-25.86 23.89-24.61 13.24 1.08 21.61 16.43 18.5 30.99Zm-19.97 2.77c.25-.73-.14-1.53-.87-1.77-4.64-1.57-10.55-1.56-14.3-1.35 3.6-3.29 8.54-5.12 11.31-5.37.77-.07 1.34-.75 1.27-1.52-.07-.77-.76-1.34-1.52-1.27-3.58.32-11.82 3.06-15.47 9.12-.28.46-.27 1.04.02 1.49.29.45.8.69 1.34.63 4.65-.57 11.74-.67 16.45.92.15.05.3.07.45.07.58 0 1.13-.37 1.32-.95Z"/><path class="cls-9" d="M150.05 58.95c38.16 11.99 62.72 43.93 62.95 79.53.16 24.53-10.68 47.22-25.87 62.7s0 0 0 .02c-3.29 4.28-12.96 10.16-25.96 15.23 64.89-52.35 23.61-116.97-20.11-122.13 3.11-14.56-5.26-29.91-18.5-30.99-15.27-1.25-21.59 10.43-23.89 24.61 2.15-13.53-2.66-25.98-13.28-25.99-13.06 0-21.33 12-23.17 25.5-.25 1.82-.33 3.56-.26 5.21h-.03c-28.01 2.86-42.03 30.49-42.88 44.79 1.2-52.97 49.38-88.42 106.71-83.21 3.82.34 7.69.87 11.59 1.59 4.39.81 8.63 1.86 12.72 3.14Z"/><path class="cls-4" d="M136.32 26.62c1.37.96 3.22 1.81 5.35 2.42l-1.07 5.45c-19.55-5.34-33.96-14.37-32.38-20.42 1.61-6.18 19.29-6.91 39.5-1.62 20.2 5.28 35.27 14.58 33.65 20.76-1.54 5.91-17.8 6.83-36.89 2.27l1.12-5.67c2.13.25 4.11.18 5.71-.15.02 0 .03-.01.05-.01 2.21-.46 3.72-1.43 3.98-2.77.51-2.62-3.89-5.68-9.83-6.85-5.94-1.16-11.17 0-11.69 2.63-.25 1.31.72 2.73 2.5 3.96Z"/><path class="cls-5" d="M168.93 178.52c7.54-14.54 9.88-27.69 6.73-28.21-11.51-1.9-105.5 9.88-126.04 10.12-2.71.03-5.25-.1-7.61-.4 10.08 18.8 25.26 36.12 41.9 46.75 12.22 7.81 25.24 12.01 37.59 10.53 22.63-2.72 38.61-21.71 47.43-38.79ZM141.04 94.3c43.72 5.16 85 69.78 20.11 122.13-11.31 4.42-25.14 8.22-39.47 9.83-22.85 2.56-45.78-.99-55.17-5.53C43.64 205.07 19 172.95 19 139.48v-.02c0-.64.01-1.27.02-1.9.01-.04.01-.09.01-.13.85-14.3 14.87-41.93 42.88-44.79h.03c.4 10.01 6.41 16.68 15.45 17.62a12.16 12.16 0 0 0-1.03 4.91c0 6.74 5.47 12.21 12.22 12.21s12.22-5.47 12.22-12.21c0-5.11-3.13-9.48-7.58-11.3 2.16-2.79 3.94-6.02 4.9-12.03-.65 5.89-.81 14.79 8.25 20.35 10.25 6.28 25.55 2.72 32.38-11.26 1.05-2.15 1.81-4.38 2.29-6.63Z"/><path class="cls-13" d="M144.81 23.6c4.93.97 8.67 3.08 8.35 4.71-.12.6-.78 1.05-1.8 1.34-.02 0-.03.01-.05.01-1.6.33-3.58.4-5.71.15l.35-1.8c-.56-1.05-3.2-1.37-3.93-.77l-.35 1.8c-2.13-.61-3.98-1.46-5.35-2.42-.76-.62-1.14-1.25-1.03-1.82.32-1.63 4.58-2.17 9.52-1.2Zm-3.23 26.67c4.77 1.61 8.12 5.06 8.47 8.68-4.09-1.28-8.33-2.33-12.72-3.14-3.9-.72-7.77-1.25-11.59-1.59 1.76-3.41 6.56-5.38 11.93-4.81.53.05 1.06.13 1.59.24.81.16 1.58.36 2.32.61Z"/><path class="cls-13" d="m145.6 29.81-1.12 5.67-2.9 14.78c-.74-.25-1.51-.45-2.32-.61-.53-.11-1.06-.19-1.59-.24l2.93-14.92 1.07-5.45.35-1.8c.73-.6 3.37-.28 3.93.77l-.35 1.8Z"/><path class="cls-2" d="M94.78 91.19c-1.07 5.14-4.26 8.85-7.12 8.3-2.86-.55-4.31-5.16-3.24-10.3 1.07-5.14 4.26-8.85 7.12-8.3 2.86.55 4.31 5.16 3.24 10.3Z"/><path class="cls-2" d="M92.54 91.85c-.49 2.36-1.8 4.09-2.93 3.87-1.13-.22-1.65-2.31-1.16-4.66.49-2.36 1.8-4.09 2.93-3.87 1.13.22 1.65 2.31 1.16 4.66Zm27.21 6.17c-.15 0-.3-.02-.45-.07-4.71-1.59-11.8-1.49-16.45-.92-.54.07-1.05-.18-1.34-.63s-.3-1.02-.02-1.48c3.65-6.06 11.89-8.8 15.48-9.12.76-.07 1.45.5 1.52 1.27.07.77-.5 1.45-1.27 1.52-2.77.25-7.71 2.08-11.31 5.37 3.75-.22 9.66-.22 14.3 1.34.73.25 1.13 1.04.88 1.77-.2.58-.74.95-1.33.95Z"/><path class="cls-1" d="M42.37 123.31c-12.38-4.75-20.38.88-22.5 14s8.38 23.38 29.75 23.12c20.53-.24 114.52-12.02 126.04-10.12 6.83 1.12-12.25 61.97-54.17 67-29.17 3.5-62-24.67-79.49-57.27"/><path class="cls-1" d="M88.58 127.38c-.58 7.26-.97 24.11-.11 29.94m-29.64-46.01c-8.83-6.83-27-15.33-34.5-18.67m33 36.67c-13.17-1.67-36.17-4.67-43.33-5.17m-1.67 28.5c6-1.17 33.5-3.67 44.33-3.67m68.51-30.66c11.17-4.33 35.22-11.17 51.86-14.17m-51.86 28.5c12.33-1.83 43.5-3.83 56.33-3.33m-56.33 17.16c7.67.67 37.01 7.44 53.17 12.33M140.6 34.49c-19.56-5.33-33.96-14.37-32.38-20.42 1.61-6.18 19.29-6.91 39.5-1.62 20.2 5.29 35.27 14.58 33.65 20.76-1.54 5.91-17.79 6.83-36.89 2.27"/><path class="cls-1" d="M136.43 26.7c-.83-.65-1.26-1.31-1.14-1.9.32-1.63 4.58-2.17 9.52-1.2 4.94.97 8.68 3.08 8.35 4.71-.12.61-.79 1.07-1.85 1.35m-37.75-12.85c.28-3.19 3.94-5.31 12.25-5.56m-8.5 7.37c.5-2.3 4.12-4.69 11.12-4.59m-5.06 5.55c.88-2.36 3.58-3.71 8.69-3.96m-1.31 4.5c.2-1.26 2.79-2.52 4.88-2.52m16.74 13.42c3.79.67 6.75-.42 8.58-2.04m-5.33 3.54c2.67.25 7.42-.62 9.12-2.25m-4.78 4.33c3.42.38 9.42-.83 10.79-2.75m-6.88 4.79c5.67-.12 10.79-1.12 12.75-4.25m-53.25 211.27c.08.62.13 1.26.13 1.9 0 7.87-6.44 14.25-14.38 14.25-7.44 0-13.56-5.61-14.3-12.79m.18-4.1c1.25-6.61 7.1-11.61 14.13-11.61 5.72 0 10.66 3.31 12.98 8.11"/><path class="cls-1" d="M95 242.93c-2.27-.53-3.99 2.56-.18 4 7.49 2.83 23.62-.06 28.55-3.27 2.4-1.56.37-5.32-1.87-4.01-4.62 2.72-18.13 5.22-26.51 3.29Z"/><ellipse class="cls-1" cx="107.75" cy="252.03" rx="4.06" ry="2.56"/><path class="cls-1" d="M108.19 254.57c.19 1.49.83 3.97 2.01 5.2"/><circle class="cls-1" cx="26.44" cy="260.25" r="18.94"/><path class="cls-1" d="M189.29 276.35c0 11.1-9 20.11-20.1 20.11s-20.11-9-20.11-20.11 9-20.11 20.11-20.11 20.1 9 20.1 20.11Z"/><path class="cls-1" d="M174.02 219.66c-7.56 12.1-11.87 24.57-13.86 38.72m43.09-15.82c-2.62 8.62-10.92 20.89-15.27 26.63m-38.19 1.86c-9.96 3.09-40.67 6.38-58.38 2.01 6.84 23.4 38.76 41.92 66.87 20.18m30.57 37.48C186 344.98 201.5 363.81 222 357.48c23.64-7.3 28.33-31.5 24.5-51.17-2.02-10.35-9.72-21.01-18.64-20.93"/><path class="cls-1" d="M139.68 327.78c-3.61 6.26 0 35.83 23.19 34.91 15.62-.62 26.63-15.25 25.13-32.5"/><path class="cls-9" d="M32.71 406.67c-.56-.38-.9-.92-1.02-1.6s.03-1.3.44-1.87c3.55-4.98 5.38-7.52 5.46-7.64 1.27-1.84 2.19-3.15 2.75-3.95.56-.8 1.21-1.67 1.96-2.6.74-.93 1.27-1.53 1.58-1.8.31-.27.75-.55 1.31-.84.56-.3 1.04-.46 1.44-.49.4-.03.97-.04 1.71-.04 1.36 0 2.45.18 3.27.53.81.36 1.67.95 2.55 1.78.89.83 2.53 2.55 4.93 5.15 5.75 6.19 9.97 10.66 12.66 13.42.5.5.76 1.11.76 1.82s-.25 1.32-.76 1.82l-1.78 1.82c-.5.5-1.09.75-1.75.75s-1.25-.24-1.75-.71a444.98 444.98 0 0 1-12.75-13.68c-1.84-2.04-3.08-3.38-3.73-4.02-.65-.64-1.2-.96-1.64-.96-.36 0-.81.36-1.35 1.07-.55.71-1.53 2.12-2.95 4.22-1.81 2.73-3.79 5.55-5.95 8.49-.42.56-.97.9-1.67 1.02s-1.33-.03-1.89-.44l-1.82-1.24Zm27.23-26.66c1.39-1.39 3.07-2.09 5.02-2.09s3.63.7 5.02 2.09c1.39 1.39 2.09 3.07 2.09 5.02s-.7 3.63-2.09 5.02c-1.39 1.39-3.07 2.09-5.02 2.09s-3.63-.7-5.02-2.09c-1.39-1.39-2.09-3.07-2.09-5.02s.7-3.63 2.09-5.02Zm2.82 7.22c.61.61 1.34.91 2.2.91s1.59-.3 2.2-.91c.61-.61.91-1.34.91-2.2s-.3-1.59-.91-2.2c-.61-.61-1.34-.91-2.2-.91s-1.59.3-2.2.91c-.61.61-.91 1.34-.91 2.2s.3 1.59.91 2.2Zm13.57 14.73c-.68 0-1.27-.25-1.78-.75-.5-.5-.76-1.1-.76-1.78v-2.13c0-.68.25-1.27.76-1.78s1.1-.76 1.78-.76h31.99c.68 0 1.27.25 1.78.76.5.5.76 1.1.76 1.78v2.13c0 .68-.25 1.27-.76 1.78s-1.1.75-1.78.75H76.33Zm41.84-4.44c-.68-.12-1.21-.47-1.6-1.04-.39-.58-.5-1.21-.36-1.89l.27-1.24c.15-.68.52-1.22 1.11-1.62.59-.4 1.23-.54 1.91-.42 2.58.47 5.83 1.11 9.77 1.91.68.15 1.21.51 1.6 1.09s.5 1.21.36 1.89l-.27 1.29a2.41 2.41 0 0 1-1.11 1.58c-.59.37-1.23.48-1.91.33-3.08-.62-6.34-1.24-9.77-1.87Zm31.9-9.51c.68.12 1.22.47 1.62 1.04.4.58.53 1.19.38 1.84-1.9 8.12-5.24 14.15-10.04 18.1s-11.77 6.46-20.93 7.53c-.71.09-1.35-.08-1.91-.51-.56-.43-.9-1-1.02-1.71l-.31-1.82c-.12-.65.04-1.25.47-1.8s.98-.87 1.67-.96c7.7-.89 13.44-2.82 17.22-5.8 3.78-2.98 6.45-7.71 8.02-14.19.15-.68.52-1.22 1.11-1.62.59-.4 1.23-.54 1.91-.42l1.82.31Zm-18.3-5.51c.68.12 1.21.47 1.6 1.07.38.59.5 1.23.36 1.91l-.27 1.38c-.12.68-.48 1.21-1.09 1.6-.61.39-1.25.5-1.93.36-3.97-.8-7.35-1.44-10.13-1.91-.65-.12-1.18-.46-1.58-1.02-.4-.56-.53-1.18-.38-1.87l.27-1.38c.12-.68.47-1.23 1.07-1.64.59-.41 1.23-.56 1.91-.44 1.96.33 5.35.98 10.17 1.96Zm14.97 2.71c-.56.27-1.15.3-1.75.11a2.25 2.25 0 0 1-1.36-1.13c-.15-.27-.36-.66-.62-1.18-.27-.52-.47-.91-.62-1.18-.3-.56-.35-1.15-.16-1.75.19-.61.57-1.06 1.13-1.35.59-.3 1.19-.34 1.8-.13.61.21 1.07.61 1.4 1.2.15.27.36.66.62 1.18.27.52.47.91.62 1.18.29.59.34 1.19.13 1.78-.21.59-.61 1.02-1.2 1.29Zm8-1.82c-.21.59-.61 1.04-1.2 1.33-.59.3-1.19.34-1.8.13-.61-.21-1.07-.61-1.4-1.2-.27-.53-.7-1.33-1.29-2.4-.3-.59-.35-1.19-.16-1.8.19-.61.59-1.06 1.18-1.35.59-.3 1.21-.34 1.87-.13.65.21 1.13.59 1.42 1.16.15.3.36.73.64 1.29l.6 1.2c.3.59.34 1.19.13 1.78Zm8.93 3.67c-.76 0-1.42-.28-1.97-.84-.56-.56-.84-1.22-.84-1.97v-1.33c0-.76.28-1.41.84-1.97.56-.56 1.22-.84 1.97-.84h22.02c.76 0 1.42.28 1.97.84.56.56.84 1.22.84 1.97v1.33c0 .76-.28 1.42-.84 1.97-.56.56-1.22.84-1.97.84h-6.32c-.26 0-.39.13-.39.4v25.87c0 .76-.28 1.42-.84 1.97-.56.56-1.22.84-1.97.84h-2.96c-.76 0-1.42-.28-1.97-.84-.56-.56-.84-1.22-.84-1.97v-25.87c0-.26-.13-.4-.39-.4h-6.32Zm55.8 24.66c-3.03 3.28-7.14 4.91-12.34 4.91s-9.31-1.64-12.34-4.91c-3.03-3.27-4.54-7.81-4.54-13.6s1.51-10.33 4.54-13.6c3.03-3.27 7.14-4.91 12.34-4.91s9.31 1.64 12.34 4.91c3.03 3.28 4.54 7.81 4.54 13.6s-1.51 10.33-4.54 13.6Zm-4.05-13.6c0-7.73-2.76-11.6-8.29-11.6s-8.29 3.87-8.29 11.6 2.76 11.6 8.29 11.6 8.29-3.87 8.29-11.6Zm16.28 18.02c-.76 0-1.42-.28-1.97-.84-.56-.56-.84-1.22-.84-1.97v-30.17c0-.79.26-1.5.79-2.12.53-.62 1.18-.97 1.97-1.04 2.8-.26 5.5-.4 8.1-.4 10.53 0 15.8 3.92 15.8 11.75 0 4.25-1.23 7.46-3.68 9.65-2.45 2.19-6.05 3.28-10.79 3.28-1.25 0-2.42-.05-3.5-.15-.3 0-.44.13-.44.39v8.79c0 .76-.28 1.42-.84 1.97-.56.56-1.22.84-1.97.84h-2.62Zm5.43-29.42v10.76c0 .23.15.38.44.44 1.12.13 2.01.2 2.67.2 2.37 0 4.2-.55 5.5-1.65 1.3-1.1 1.95-2.64 1.95-4.62 0-3.92-2.49-5.88-7.45-5.88-.82 0-1.73.08-2.72.25-.26.07-.39.23-.39.49Z"/><path class="cls-3" d="M107.75 249.46c2.24 0 4.06 1.15 4.06 2.57s-1.82 2.56-4.06 2.56-4.07-1.15-4.07-2.56 1.82-2.57 4.07-2.57Zm118.28-11.48c6.35 0 11.5 5.15 11.5 11.5s-5.15 11.5-11.5 11.5c-.65 0-1.29-.06-1.92-.16-1.07-4.91-2.42-9.81-4.11-13.84-.72-1.72-1.58-3.44-2.56-5.15a11.5 11.5 0 0 1 8.59-3.85Z"/><path class="cls-3" d="M123.37 243.66c.08.62.13 1.26.13 1.9 0 7.87-6.44 14.25-14.38 14.25-7.44 0-13.56-5.61-14.3-12.79l.03-.08c7.52 2.81 23.59-.08 28.52-3.28Zm-11.56 8.37c0-1.42-1.82-2.57-4.06-2.57s-4.07 1.15-4.07 2.57 1.82 2.56 4.07 2.56 4.06-1.15 4.06-2.56Z"/><path class="cls-3" d="M122.1 239.42c1.96-.42 3.45 2.82 1.27 4.24-4.93 3.2-21 6.09-28.52 3.28h-.04c-3.81-1.43-2.09-4.52.18-4 8.38 1.94 21.89-.56 26.51-3.28.2-.12.4-.2.6-.23Z"/><path class="cls-3" d="M122.1 239.42c-.2.03-.4.11-.6.23-4.62 2.72-18.13 5.22-26.51 3.28.61-3.24 2.32-6.09 4.73-8.14 2.52-2.17 5.8-3.48 9.4-3.48 3.3 0 6.34 1.1 8.77 2.96 1.78 1.35 3.23 3.12 4.21 5.15Zm23.41-219.39c5.94 1.17 10.34 4.23 9.83 6.85-.26 1.34-1.77 2.31-3.98 2.77 1.02-.29 1.68-.74 1.8-1.34.32-1.63-3.42-3.74-8.35-4.71-4.94-.97-9.2-.43-9.52 1.2-.11.57.27 1.2 1.03 1.82-1.78-1.23-2.75-2.65-2.5-3.96.52-2.62 5.75-3.79 11.69-2.63ZM120.2 95.3c.73.24 1.12 1.04.87 1.77-.19.58-.74.95-1.32.95-.15 0-.3-.02-.45-.07-4.71-1.59-11.8-1.49-16.45-.92-.54.06-1.05-.18-1.34-.63-.29-.45-.3-1.03-.02-1.49 3.65-6.06 11.89-8.8 15.47-9.12.76-.07 1.45.5 1.52 1.27.07.77-.5 1.45-1.27 1.52-2.77.25-7.71 2.08-11.31 5.37 3.75-.21 9.66-.22 14.3 1.35ZM91.54 80.89c2.86.56 4.31 5.17 3.24 10.31-1.08 5.13-4.26 8.85-7.12 8.29-2.86-.55-4.31-5.16-3.24-10.3 1.07-5.13 4.26-8.85 7.12-8.3Zm1.01 10.97c.48-2.36-.03-4.44-1.17-4.66s-2.44 1.51-2.93 3.87c-.5 2.35.03 4.44 1.16 4.66 1.13.22 2.44-1.52 2.94-3.87Zm.67 12.01c4.45 1.82 7.58 6.19 7.58 11.3 0 6.74-5.47 12.21-12.22 12.21s-12.22-5.47-12.22-12.21c0-1.75.37-3.41 1.03-4.91 1.89-4.3 6.19-7.31 11.19-7.31 1.64 0 3.21.32 4.64.92Zm1.99 6.51c0-2.07-1.68-3.75-3.75-3.75s-3.75 1.68-3.75 3.75 1.68 3.75 3.75 3.75 3.75-1.68 3.75-3.75Zm-11.3 96.4c6.42-39.63 66.94-51.02 85.02-28.26-8.82 17.08-24.8 36.07-47.43 38.79-12.35 1.48-25.37-2.72-37.59-10.53Z"/><path class="cls-3" d="M187.13 201.18c2.49 0 2.41 4.29 2.24 5.6-.07.52-.22 1.05-.44 1.58-1.62 3.74-7.16 7.66-14.91 11.31-9.74 4.58-22.97 8.72-36.3 11.52h-.05c-5.74 1.21-11.5 2.16-17.01 2.79-.93.1-1.86.2-2.77.29a14.373 14.373 0 0 0-8.77-2.96c-3.6 0-6.88 1.31-9.4 3.48-2.55-.11-4.93-.3-7.14-.55-12.46-1.35-19.66-4.41-21.69-5.11-1.38-.48-2.45-1.5-3.2-2.75-1.02-1.7-1.43-3.83-1.18-5.65 9.39 4.54 32.32 8.09 55.17 5.53 14.33-1.61 28.16-5.41 39.47-9.83 13-5.07 22.67-10.95 25.96-15.23v-.02Zm-11.47-50.87c3.15.52.81 13.67-6.73 28.21-18.08-22.76-78.6-11.37-85.02 28.26-16.64-10.63-31.82-27.95-41.9-46.74 2.36.29 4.9.42 7.61.39 20.54-.24 114.53-12.02 126.04-10.12Z"/><path class="cls-3" d="M79.59 264.38h-.01c-11.91 3.62-31.9 6.68-37.6 6.67 2.14-3.06 3.39-6.78 3.39-10.8 0-7.09-3.9-13.27-9.67-16.51 5.71-5.6 23.34-14.96 31.99-17.36.75 1.25 1.82 2.27 3.2 2.75 2.03.7 9.23 3.76 21.69 5.11v.09c-10.42 5.05-15.6 23.56-11.96 32.42-.35-.78-.7-1.57-1.03-2.37Zm58.13-33.19c13.33-2.8 26.56-6.94 36.3-11.52-4.51 7.21-7.86 14.56-10.24 22.31-4.59-4.44-19.18-11.64-26.05-10.79Z"/><path class="cls-3" d="M187.97 269.19c-2.89-7.57-10.21-12.94-18.78-12.94-3.25 0-6.32.77-9.03 2.14.8-5.72 1.98-11.16 3.62-16.41 2.38-7.75 5.73-15.1 10.24-22.31 7.75-3.65 13.29-7.57 14.91-11.31 3.31 4.62 20.11 18.7 28.51 33.47.98 1.71 1.84 3.43 2.56 5.15 1.69 4.03 3.04 8.93 4.11 13.84 2.33 10.63 3.34 21.28 3.51 23.24.03.37.12.82.24 1.32.81 3.36 3.33 9.23 3.76 12.93 2.13 18.25-16.21 39.33-39.7 33.71-1.03-.25-2.06-.71-3.07-1.3-.29-.17-.57-.34-.85-.53-4.31-2.86-8.17-7.87-10-9.13-.33-.23-.85-.49-1.5-.76 0 5.34-10.25 12.87-19.25 13.76-3.5.34-6.98.02-9.81-.79-1.2-.34-3.32-1.26-5.12-2.79-.99-.85-1.88-1.84-2.64-2.7-.77-.87-1.38-1.58-1.79-1.85-7.01-4.59-15.06-8.22-23.56-15.45-4.84-4.12-9.53-8.62-13.91-13.55 16.04 15.21 49.38 18.6 70.58-.55 10.25-.91 18.29-9.53 18.29-20.02 0-2.53-.47-4.94-1.32-7.17Z"/><path class="cls-3" d="M246.5 306.31c3.83 19.67-.86 43.86-24.5 51.17-20.5 6.33-36-12.5-33.15-26.76 1.01.59 2.04 1.05 3.07 1.3 23.49 5.62 41.83-15.46 39.7-33.71-.43-3.7-2.95-9.57-3.76-12.93 8.91-.08 16.62 10.58 18.64 20.93Z"/><path class="cls-3" d="M188 330.19c1.5 17.25-9.5 31.87-25.13 32.5-23.19.92-26.8-28.65-23.19-34.91.76.86 1.65 1.85 2.64 2.7 1.8 1.53 3.92 2.45 5.12 2.79 2.83.81 6.31 1.13 9.81.79 9-.89 19.25-8.42 19.25-13.76.65.27 1.17.53 1.5.76 1.83 1.26 5.69 6.27 10 9.13ZM45.37 260.25c0 4.02-1.25 7.74-3.39 10.8a18.891 18.891 0 0 1-15.55 8.14c-10.45 0-18.93-8.48-18.93-18.94s8.48-18.94 18.93-18.94c3.37 0 6.53.88 9.27 2.43 5.77 3.24 9.67 9.42 9.67 16.51Zm142.6 8.94c.85 2.23 1.32 4.64 1.32 7.17 0 10.49-8.04 19.11-18.29 20.02-.6.05-1.2.08-1.81.08-11.11 0-20.11-9-20.11-20.1 0-7.86 4.51-14.67 11.08-17.97 2.71-1.37 5.78-2.14 9.03-2.14 8.57 0 15.89 5.37 18.78 12.94Z"/><path class="cls-3" d="M169.19 296.46c.61 0 1.21-.03 1.81-.08-21.2 19.15-54.54 15.76-70.58.55-7.79-8.7-14.65-18.71-19.8-30.18-3.64-8.86 1.54-27.37 11.95-32.42v-.09c2.22.25 4.6.44 7.15.55-2.41 2.05-4.12 4.9-4.73 8.13-2.27-.51-3.99 2.58-.18 4.01h.04l-.03.08c.74 7.18 6.86 12.79 14.3 12.79 7.94 0 14.38-6.38 14.38-14.25 0-.64-.05-1.28-.13-1.9 2.18-1.42.69-4.66-1.27-4.24-.98-2.03-2.43-3.8-4.21-5.15.91-.09 1.84-.19 2.77-.29 5.51-.63 11.27-1.58 17.01-2.79h.05c6.87-.85 21.46 6.35 26.05 10.79-1.64 5.25-2.82 10.69-3.62 16.41-6.57 3.3-11.08 10.11-11.08 17.97 0 11.1 9 20.1 20.11 20.1Z"/><circle class="cls-3" cx="91.46" cy="110.38" r="3.75"/><path class="cls-3" d="M91.38 87.19c1.13.22 1.65 2.3 1.17 4.66-.5 2.35-1.8 4.09-2.94 3.87-1.12-.22-1.65-2.31-1.16-4.66.48-2.37 1.79-4.09 2.93-3.87Z"/><path class="cls-3" d="M85.37 61.93c10.62 0 15.43 12.46 13.28 25.99-.21 1.29-.38 2.6-.53 3.92-.96 6.01-2.74 9.24-4.9 12.03-1.43-.6-3-.92-4.64-.92-5 0-9.3 3.01-11.19 7.31-9.04-.94-15.05-7.61-15.45-17.62-.07-1.65 0-3.39.26-5.21 1.84-13.5 10.11-25.5 23.17-25.5Zm9.41 29.27c1.07-5.14-.38-9.75-3.24-10.31-2.86-.55-6.05 3.17-7.12 8.3-1.07 5.14.38 9.75 3.24 10.3 2.86.56 6.04-3.16 7.12-8.29Z"/><path class="cls-3" d="M141.04 94.3c-.48 2.25-1.24 4.48-2.29 6.63-6.83 13.98-22.13 17.54-32.38 11.26-9.06-5.56-8.9-14.46-8.25-20.35.15-1.32.32-2.63.53-3.92 2.3-14.18 8.62-25.86 23.89-24.61 13.24 1.08 21.61 16.43 18.5 30.99Zm-19.97 2.77c.25-.73-.14-1.53-.87-1.77-4.64-1.57-10.55-1.56-14.3-1.35 3.6-3.29 8.54-5.12 11.31-5.37.77-.07 1.34-.75 1.27-1.52-.07-.77-.76-1.34-1.52-1.27-3.58.32-11.82 3.06-15.47 9.12-.28.46-.27 1.04.02 1.49.29.45.8.69 1.34.63 4.65-.57 11.74-.67 16.45.92.15.05.3.07.45.07.58 0 1.13-.37 1.32-.95Z"/><path class="cls-3" d="M150.05 58.95c38.16 11.99 62.72 43.93 62.95 79.53.16 24.53-10.68 47.22-25.87 62.7s0 0 0 .02c-3.29 4.28-12.96 10.16-25.96 15.23 64.89-52.35 23.61-116.97-20.11-122.13 3.11-14.56-5.26-29.91-18.5-30.99-15.27-1.25-21.59 10.43-23.89 24.61 2.15-13.53-2.66-25.98-13.28-25.99-13.06 0-21.33 12-23.17 25.5-.25 1.82-.33 3.56-.26 5.21h-.03c-28.01 2.86-42.03 30.49-42.88 44.79 1.2-52.97 49.38-88.42 106.71-83.21 3.82.34 7.69.87 11.59 1.59 4.39.81 8.63 1.86 12.72 3.14Zm-13.73-32.33c1.37.96 3.22 1.81 5.35 2.42l-1.07 5.45c-19.55-5.34-33.96-14.37-32.38-20.42 1.61-6.18 19.29-6.91 39.5-1.62 20.2 5.28 35.27 14.58 33.65 20.76-1.54 5.91-17.8 6.83-36.89 2.27l1.12-5.67c2.13.25 4.11.18 5.71-.15.02 0 .03-.01.05-.01 2.21-.46 3.72-1.43 3.98-2.77.51-2.62-3.89-5.68-9.83-6.85-5.94-1.16-11.17 0-11.69 2.63-.25 1.31.72 2.73 2.5 3.96Z"/><path class="cls-3" d="M168.93 178.52c7.54-14.54 9.88-27.69 6.73-28.21-11.51-1.9-105.5 9.88-126.04 10.12-2.71.03-5.25-.1-7.61-.4 10.08 18.8 25.26 36.12 41.9 46.75 12.22 7.81 25.24 12.01 37.59 10.53 22.63-2.72 38.61-21.71 47.43-38.79ZM141.04 94.3c43.72 5.16 85 69.78 20.11 122.13-11.31 4.42-25.14 8.22-39.47 9.83-22.85 2.56-45.78-.99-55.17-5.53C43.64 205.07 19 172.95 19 139.48v-.02c0-.64.01-1.27.02-1.9.01-.04.01-.09.01-.13.85-14.3 14.87-41.93 42.88-44.79h.03c.4 10.01 6.41 16.68 15.45 17.62a12.16 12.16 0 0 0-1.03 4.91c0 6.74 5.47 12.21 12.22 12.21s12.22-5.47 12.22-12.21c0-5.11-3.13-9.48-7.58-11.3 2.16-2.79 3.94-6.02 4.9-12.03-.65 5.89-.81 14.79 8.25 20.35 10.25 6.28 25.55 2.72 32.38-11.26 1.05-2.15 1.81-4.38 2.29-6.63Zm3.77-70.7c4.93.97 8.67 3.08 8.35 4.71-.12.6-.78 1.05-1.8 1.34-.02 0-.03.01-.05.01-1.6.33-3.58.4-5.71.15l.35-1.8c-.56-1.05-3.2-1.37-3.93-.77l-.35 1.8c-2.13-.61-3.98-1.46-5.35-2.42-.76-.62-1.14-1.25-1.03-1.82.32-1.63 4.58-2.17 9.52-1.2Zm-3.23 26.67c4.77 1.61 8.12 5.06 8.47 8.68-4.09-1.28-8.33-2.33-12.72-3.14-3.9-.72-7.77-1.25-11.59-1.59 1.76-3.41 6.56-5.38 11.93-4.81.53.05 1.06.13 1.59.24.81.16 1.58.36 2.32.61Z"/><path class="cls-3" d="m145.6 29.81-1.12 5.67-2.9 14.78c-.74-.25-1.51-.45-2.32-.61-.53-.11-1.06-.19-1.59-.24l2.93-14.92 1.07-5.45.35-1.8c.73-.6 3.37-.28 3.93.77l-.35 1.8ZM94.78 91.19c-1.07 5.14-4.26 8.85-7.12 8.3-2.86-.55-4.31-5.16-3.24-10.3 1.07-5.14 4.26-8.85 7.12-8.3 2.86.55 4.31 5.16 3.24 10.3Z"/><path class="cls-3" d="M92.54 91.85c-.49 2.36-1.8 4.09-2.93 3.87-1.13-.22-1.65-2.31-1.16-4.66.49-2.36 1.8-4.09 2.93-3.87 1.13.22 1.65 2.31 1.16 4.66Zm27.21 6.17c-.15 0-.3-.02-.45-.07-4.71-1.59-11.8-1.49-16.45-.92-.54.07-1.05-.18-1.34-.63s-.3-1.02-.02-1.48c3.65-6.06 11.89-8.8 15.48-9.12.76-.07 1.45.5 1.52 1.27.07.77-.5 1.45-1.27 1.52-2.77.25-7.71 2.08-11.31 5.37 3.75-.22 9.66-.22 14.3 1.34.73.25 1.13 1.04.88 1.77-.2.58-.74.95-1.33.95Zm-77.38 25.29c-12.38-4.75-20.38.88-22.5 14s8.38 23.38 29.75 23.12c20.53-.24 114.52-12.02 126.04-10.12 6.83 1.12-12.25 61.97-54.17 67-29.17 3.5-62-24.67-79.49-57.27"/><path class="cls-3" d="M88.58 127.38c-.58 7.26-.97 24.11-.11 29.94m-29.64-46.01c-8.83-6.83-27-15.33-34.5-18.67m33 36.67c-13.17-1.67-36.17-4.67-43.33-5.17m-1.67 28.5c6-1.17 33.5-3.67 44.33-3.67m68.51-30.66c11.17-4.33 35.22-11.17 51.86-14.17m-51.86 28.5c12.33-1.83 43.5-3.83 56.33-3.33m-56.33 17.16c7.67.67 37.01 7.44 53.17 12.33M140.6 34.49c-19.56-5.33-33.96-14.37-32.38-20.42 1.61-6.18 19.29-6.91 39.5-1.62 20.2 5.29 35.27 14.58 33.65 20.76-1.54 5.91-17.79 6.83-36.89 2.27"/><path class="cls-3" d="M136.43 26.7c-.83-.65-1.26-1.31-1.14-1.9.32-1.63 4.58-2.17 9.52-1.2 4.94.97 8.68 3.08 8.35 4.71-.12.61-.79 1.07-1.85 1.35m-37.75-12.85c.28-3.19 3.94-5.31 12.25-5.56m-8.5 7.37c.5-2.3 4.12-4.69 11.12-4.59m-5.06 5.55c.88-2.36 3.58-3.71 8.69-3.96m-1.31 4.5c.2-1.26 2.79-2.52 4.88-2.52m16.74 13.42c3.79.67 6.75-.42 8.58-2.04m-5.33 3.54c2.67.25 7.42-.62 9.12-2.25m-4.78 4.33c3.42.38 9.42-.83 10.79-2.75m-6.88 4.79c5.67-.12 10.79-1.12 12.75-4.25m-53.25 211.27c.08.62.13 1.26.13 1.9 0 7.87-6.44 14.25-14.38 14.25-7.44 0-13.56-5.61-14.3-12.79m.18-4.1c1.25-6.61 7.1-11.61 14.13-11.61 5.72 0 10.66 3.31 12.98 8.11"/><path class="cls-3" d="M95 242.93c-2.27-.53-3.99 2.56-.18 4 7.49 2.83 23.62-.06 28.55-3.27 2.4-1.56.37-5.32-1.87-4.01-4.62 2.72-18.13 5.22-26.51 3.29Z"/><ellipse class="cls-3" cx="107.75" cy="252.03" rx="4.06" ry="2.56"/><path class="cls-3" d="M108.19 254.57c.19 1.49.83 3.97 2.01 5.2"/><circle class="cls-3" cx="26.44" cy="260.25" r="18.94"/><path class="cls-3" d="M189.29 276.35c0 11.1-9 20.11-20.1 20.11s-20.11-9-20.11-20.11 9-20.11 20.11-20.11 20.1 9 20.1 20.11Z"/><path class="cls-3" d="M174.02 219.66c-7.56 12.1-11.87 24.57-13.86 38.72m43.09-15.82c-2.62 8.62-10.92 20.89-15.27 26.63m-38.19 1.86c-9.96 3.09-40.67 6.38-58.38 2.01 6.84 23.4 38.76 41.92 66.87 20.18m30.57 37.48C186 344.98 201.5 363.81 222 357.48c23.64-7.3 28.33-31.5 24.5-51.17-2.02-10.35-9.72-21.01-18.64-20.93"/><path class="cls-3" d="M139.68 327.78c-3.61 6.26 0 35.83 23.19 34.91 15.62-.62 26.63-15.25 25.13-32.5M32.71 406.67c-.56-.38-.9-.92-1.02-1.6s.03-1.3.44-1.87c3.55-4.98 5.38-7.52 5.46-7.64 1.27-1.84 2.19-3.15 2.75-3.95.56-.8 1.21-1.67 1.96-2.6.74-.93 1.27-1.53 1.58-1.8.31-.27.75-.55 1.31-.84.56-.3 1.04-.46 1.44-.49.4-.03.97-.04 1.71-.04 1.36 0 2.45.18 3.27.53.81.36 1.67.95 2.55 1.78.89.83 2.53 2.55 4.93 5.15 5.75 6.19 9.97 10.66 12.66 13.42.5.5.76 1.11.76 1.82s-.25 1.32-.76 1.82l-1.78 1.82c-.5.5-1.09.75-1.75.75s-1.25-.24-1.75-.71a444.98 444.98 0 0 1-12.75-13.68c-1.84-2.04-3.08-3.38-3.73-4.02-.65-.64-1.2-.96-1.64-.96-.36 0-.81.36-1.35 1.07-.55.71-1.53 2.12-2.95 4.22-1.81 2.73-3.79 5.55-5.95 8.49-.42.56-.97.9-1.67 1.02s-1.33-.03-1.89-.44l-1.82-1.24Zm27.23-26.66c1.39-1.39 3.07-2.09 5.02-2.09s3.63.7 5.02 2.09c1.39 1.39 2.09 3.07 2.09 5.02s-.7 3.63-2.09 5.02c-1.39 1.39-3.07 2.09-5.02 2.09s-3.63-.7-5.02-2.09c-1.39-1.39-2.09-3.07-2.09-5.02s.7-3.63 2.09-5.02Zm2.82 7.22c.61.61 1.34.91 2.2.91s1.59-.3 2.2-.91c.61-.61.91-1.34.91-2.2s-.3-1.59-.91-2.2c-.61-.61-1.34-.91-2.2-.91s-1.59.3-2.2.91c-.61.61-.91 1.34-.91 2.2s.3 1.59.91 2.2Zm13.57 14.73c-.68 0-1.27-.25-1.78-.75-.5-.5-.76-1.1-.76-1.78v-2.13c0-.68.25-1.27.76-1.78s1.1-.76 1.78-.76h31.99c.68 0 1.27.25 1.78.76.5.5.76 1.1.76 1.78v2.13c0 .68-.25 1.27-.76 1.78s-1.1.75-1.78.75H76.33Zm41.84-4.44c-.68-.12-1.21-.47-1.6-1.04-.39-.58-.5-1.21-.36-1.89l.27-1.24c.15-.68.52-1.22 1.11-1.62.59-.4 1.23-.54 1.91-.42 2.58.47 5.83 1.11 9.77 1.91.68.15 1.21.51 1.6 1.09s.5 1.21.36 1.89l-.27 1.29a2.41 2.41 0 0 1-1.11 1.58c-.59.37-1.23.48-1.91.33-3.08-.62-6.34-1.24-9.77-1.87Zm31.9-9.51c.68.12 1.22.47 1.62 1.04.4.58.53 1.19.38 1.84-1.9 8.12-5.24 14.15-10.04 18.1s-11.77 6.46-20.93 7.53c-.71.09-1.35-.08-1.91-.51-.56-.43-.9-1-1.02-1.71l-.31-1.82c-.12-.65.04-1.25.47-1.8s.98-.87 1.67-.96c7.7-.89 13.44-2.82 17.22-5.8 3.78-2.98 6.45-7.71 8.02-14.19.15-.68.52-1.22 1.11-1.62.59-.4 1.23-.54 1.91-.42l1.82.31Zm-18.3-5.51c.68.12 1.21.47 1.6 1.07.38.59.5 1.23.36 1.91l-.27 1.38c-.12.68-.48 1.21-1.09 1.6-.61.39-1.25.5-1.93.36-3.97-.8-7.35-1.44-10.13-1.91-.65-.12-1.18-.46-1.58-1.02-.4-.56-.53-1.18-.38-1.87l.27-1.38c.12-.68.47-1.23 1.07-1.64.59-.41 1.23-.56 1.91-.44 1.96.33 5.35.98 10.17 1.96Zm14.97 2.71c-.56.27-1.15.3-1.75.11a2.25 2.25 0 0 1-1.36-1.13c-.15-.27-.36-.66-.62-1.18-.27-.52-.47-.91-.62-1.18-.3-.56-.35-1.15-.16-1.75.19-.61.57-1.06 1.13-1.35.59-.3 1.19-.34 1.8-.13.61.21 1.07.61 1.4 1.2.15.27.36.66.62 1.18.27.52.47.91.62 1.18.29.59.34 1.19.13 1.78-.21.59-.61 1.02-1.2 1.29Zm8-1.82c-.21.59-.61 1.04-1.2 1.33-.59.3-1.19.34-1.8.13-.61-.21-1.07-.61-1.4-1.2-.27-.53-.7-1.33-1.29-2.4-.3-.59-.35-1.19-.16-1.8.19-.61.59-1.06 1.18-1.35.59-.3 1.21-.34 1.87-.13.65.21 1.13.59 1.42 1.16.15.3.36.73.64 1.29l.6 1.2c.3.59.34 1.19.13 1.78Zm8.93 3.67c-.76 0-1.42-.28-1.97-.84-.56-.56-.84-1.22-.84-1.97v-1.33c0-.76.28-1.41.84-1.97.56-.56 1.22-.84 1.97-.84h22.02c.76 0 1.42.28 1.97.84.56.56.84 1.22.84 1.97v1.33c0 .76-.28 1.42-.84 1.97-.56.56-1.22.84-1.97.84h-6.32c-.26 0-.39.13-.39.4v25.87c0 .76-.28 1.42-.84 1.97-.56.56-1.22.84-1.97.84h-2.96c-.76 0-1.42-.28-1.97-.84-.56-.56-.84-1.22-.84-1.97v-25.87c0-.26-.13-.4-.39-.4h-6.32Zm55.8 24.66c-3.03 3.28-7.14 4.91-12.34 4.91s-9.31-1.64-12.34-4.91c-3.03-3.27-4.54-7.81-4.54-13.6s1.51-10.33 4.54-13.6c3.03-3.27 7.14-4.91 12.34-4.91s9.31 1.64 12.34 4.91c3.03 3.28 4.54 7.81 4.54 13.6s-1.51 10.33-4.54 13.6Zm-4.05-13.6c0-7.73-2.76-11.6-8.29-11.6s-8.29 3.87-8.29 11.6 2.76 11.6 8.29 11.6 8.29-3.87 8.29-11.6Zm16.28 18.02c-.76 0-1.42-.28-1.97-.84-.56-.56-.84-1.22-.84-1.97v-30.17c0-.79.26-1.5.79-2.12.53-.62 1.18-.97 1.97-1.04 2.8-.26 5.5-.4 8.1-.4 10.53 0 15.8 3.92 15.8 11.75 0 4.25-1.23 7.46-3.68 9.65-2.45 2.19-6.05 3.28-10.79 3.28-1.25 0-2.42-.05-3.5-.15-.3 0-.44.13-.44.39v8.79c0 .76-.28 1.42-.84 1.97-.56.56-1.22.84-1.97.84h-2.62Zm5.43-29.42v10.76c0 .23.15.38.44.44 1.12.13 2.01.2 2.67.2 2.37 0 4.2-.55 5.5-1.65 1.3-1.1 1.95-2.64 1.95-4.62 0-3.92-2.49-5.88-7.45-5.88-.82 0-1.73.08-2.72.25-.26.07-.39.23-.39.49Z"/><path class="cls-8" d="M107.75 249.46c2.24 0 4.06 1.15 4.06 2.57s-1.82 2.56-4.06 2.56-4.07-1.15-4.07-2.56 1.82-2.57 4.07-2.57Z"/><path class="cls-10" d="M226.03 237.98c6.35 0 11.5 5.15 11.5 11.5s-5.15 11.5-11.5 11.5c-.65 0-1.29-.06-1.92-.16-1.07-4.91-2.42-9.81-4.11-13.84-.72-1.72-1.58-3.44-2.56-5.15a11.5 11.5 0 0 1 8.59-3.85Z"/><path class="cls-12" d="M123.37 243.66c.08.62.13 1.26.13 1.9 0 7.87-6.44 14.25-14.38 14.25-7.44 0-13.56-5.61-14.3-12.79l.03-.08c7.52 2.81 23.59-.08 28.52-3.28Zm-11.56 8.37c0-1.42-1.82-2.57-4.06-2.57s-4.07 1.15-4.07 2.57 1.82 2.56 4.07 2.56 4.06-1.15 4.06-2.56Z"/><path class="cls-12" d="M122.1 239.42c1.96-.42 3.45 2.82 1.27 4.24-4.93 3.2-21 6.09-28.52 3.28h-.04c-3.81-1.43-2.09-4.52.18-4 8.38 1.94 21.89-.56 26.51-3.28.2-.12.4-.2.6-.23Z"/><path class="cls-12" d="M122.1 239.42c-.2.03-.4.11-.6.23-4.62 2.72-18.13 5.22-26.51 3.28.61-3.24 2.32-6.09 4.73-8.14 2.52-2.17 5.8-3.48 9.4-3.48 3.3 0 6.34 1.1 8.77 2.96 1.78 1.35 3.23 3.12 4.21 5.15Z"/><path class="cls-13" d="M145.51 20.03c5.94 1.17 10.34 4.23 9.83 6.85-.26 1.34-1.77 2.31-3.98 2.77 1.02-.29 1.68-.74 1.8-1.34.32-1.63-3.42-3.74-8.35-4.71-4.94-.97-9.2-.43-9.52 1.2-.11.57.27 1.2 1.03 1.82-1.78-1.23-2.75-2.65-2.5-3.96.52-2.62 5.75-3.79 11.69-2.63Z"/><path class="cls-6" d="M120.2 95.3c.73.24 1.12 1.04.87 1.77-.19.58-.74.95-1.32.95-.15 0-.3-.02-.45-.07-4.71-1.59-11.8-1.49-16.45-.92-.54.06-1.05-.18-1.34-.63-.29-.45-.3-1.03-.02-1.49 3.65-6.06 11.89-8.8 15.47-9.12.76-.07 1.45.5 1.52 1.27.07.77-.5 1.45-1.27 1.52-2.77.25-7.71 2.08-11.31 5.37 3.75-.21 9.66-.22 14.3 1.35ZM91.54 80.89c2.86.56 4.31 5.17 3.24 10.31-1.08 5.13-4.26 8.85-7.12 8.29-2.86-.55-4.31-5.16-3.24-10.3 1.07-5.13 4.26-8.85 7.12-8.3Zm1.01 10.97c.48-2.36-.03-4.44-1.17-4.66s-2.44 1.51-2.93 3.87c-.5 2.35.03 4.44 1.16 4.66 1.13.22 2.44-1.52 2.94-3.87Z"/><path class="cls-10" d="M93.22 103.87c4.45 1.82 7.58 6.19 7.58 11.3 0 6.74-5.47 12.21-12.22 12.21s-12.22-5.47-12.22-12.21c0-1.75.37-3.41 1.03-4.91 1.89-4.3 6.19-7.31 11.19-7.31 1.64 0 3.21.32 4.64.92Zm1.99 6.51c0-2.07-1.68-3.75-3.75-3.75s-3.75 1.68-3.75 3.75 1.68 3.75 3.75 3.75 3.75-1.68 3.75-3.75Z"/><path class="cls-11" d="M83.91 206.78c6.42-39.63 66.94-51.02 85.02-28.26-8.82 17.08-24.8 36.07-47.43 38.79-12.35 1.48-25.37-2.72-37.59-10.53Z"/><path class="cls-10" d="M187.13 201.18c2.49 0 2.41 4.29 2.24 5.6-.07.52-.22 1.05-.44 1.58-1.62 3.74-7.16 7.66-14.91 11.31-9.74 4.58-22.97 8.72-36.3 11.52h-.05c-5.74 1.21-11.5 2.16-17.01 2.79-.93.1-1.86.2-2.77.29a14.373 14.373 0 0 0-8.77-2.96c-3.6 0-6.88 1.31-9.4 3.48-2.55-.11-4.93-.3-7.14-.55-12.46-1.35-19.66-4.41-21.69-5.11-1.38-.48-2.45-1.5-3.2-2.75-1.02-1.7-1.43-3.83-1.18-5.65 9.39 4.54 32.32 8.09 55.17 5.53 14.33-1.61 28.16-5.41 39.47-9.83 13-5.07 22.67-10.95 25.96-15.23v-.02Zm-11.47-50.87c3.15.52.81 13.67-6.73 28.21-18.08-22.76-78.6-11.37-85.02 28.26-16.64-10.63-31.82-27.95-41.9-46.74 2.36.29 4.9.42 7.61.39 20.54-.24 114.53-12.02 126.04-10.12Z"/><path class="cls-9" d="M79.59 264.38h-.01c-11.91 3.62-31.9 6.68-37.6 6.67 2.14-3.06 3.39-6.78 3.39-10.8 0-7.09-3.9-13.27-9.67-16.51 5.71-5.6 23.34-14.96 31.99-17.36.75 1.25 1.82 2.27 3.2 2.75 2.03.7 9.23 3.76 21.69 5.11v.09c-10.42 5.05-15.6 23.56-11.96 32.42-.35-.78-.7-1.57-1.03-2.37Zm58.13-33.19c13.33-2.8 26.56-6.94 36.3-11.52-4.51 7.21-7.86 14.56-10.24 22.31-4.59-4.44-19.18-11.64-26.05-10.79Z"/><path class="cls-9" d="M187.97 269.19c-2.89-7.57-10.21-12.94-18.78-12.94-3.25 0-6.32.77-9.03 2.14.8-5.72 1.98-11.16 3.62-16.41 2.38-7.75 5.73-15.1 10.24-22.31 7.75-3.65 13.29-7.57 14.91-11.31 3.31 4.62 20.11 18.7 28.51 33.47.98 1.71 1.84 3.43 2.56 5.15 1.69 4.03 3.04 8.93 4.11 13.84 2.33 10.63 3.34 21.28 3.51 23.24.03.37.12.82.24 1.32.81 3.36 3.33 9.23 3.76 12.93 2.13 18.25-16.21 39.33-39.7 33.71-1.03-.25-2.06-.71-3.07-1.3-.29-.17-.57-.34-.85-.53-4.31-2.86-8.17-7.87-10-9.13-.33-.23-.85-.49-1.5-.76 0 5.34-10.25 12.87-19.25 13.76-3.5.34-6.98.02-9.81-.79-1.2-.34-3.32-1.26-5.12-2.79-.99-.85-1.88-1.84-2.64-2.7-.77-.87-1.38-1.58-1.79-1.85-7.01-4.59-15.06-8.22-23.56-15.45-4.84-4.12-9.53-8.62-13.91-13.55 16.04 15.21 49.38 18.6 70.58-.55 10.25-.91 18.29-9.53 18.29-20.02 0-2.53-.47-4.94-1.32-7.17Z"/><path class="cls-5" d="M246.5 306.31c3.83 19.67-.86 43.86-24.5 51.17-20.5 6.33-36-12.5-33.15-26.76 1.01.59 2.04 1.05 3.07 1.3 23.49 5.62 41.83-15.46 39.7-33.71-.43-3.7-2.95-9.57-3.76-12.93 8.91-.08 16.62 10.58 18.64 20.93Z"/><path class="cls-5" d="M188 330.19c1.5 17.25-9.5 31.87-25.13 32.5-23.19.92-26.8-28.65-23.19-34.91.76.86 1.65 1.85 2.64 2.7 1.8 1.53 3.92 2.45 5.12 2.79 2.83.81 6.31 1.13 9.81.79 9-.89 19.25-8.42 19.25-13.76.65.27 1.17.53 1.5.76 1.83 1.26 5.69 6.27 10 9.13ZM45.37 260.25c0 4.02-1.25 7.74-3.39 10.8a18.891 18.891 0 0 1-15.55 8.14c-10.45 0-18.93-8.48-18.93-18.94s8.48-18.94 18.93-18.94c3.37 0 6.53.88 9.27 2.43 5.77 3.24 9.67 9.42 9.67 16.51Zm142.6 8.94c.85 2.23 1.32 4.64 1.32 7.17 0 10.49-8.04 19.11-18.29 20.02-.6.05-1.2.08-1.81.08-11.11 0-20.11-9-20.11-20.1 0-7.86 4.51-14.67 11.08-17.97 2.71-1.37 5.78-2.14 9.03-2.14 8.57 0 15.89 5.37 18.78 12.94Z"/><path class="cls-5" d="M169.19 296.46c.61 0 1.21-.03 1.81-.08-21.2 19.15-54.54 15.76-70.58.55-7.79-8.7-14.65-18.71-19.8-30.18-3.64-8.86 1.54-27.37 11.95-32.42v-.09c2.22.25 4.6.44 7.15.55-2.41 2.05-4.12 4.9-4.73 8.13-2.27-.51-3.99 2.58-.18 4.01h.04l-.03.08c.74 7.18 6.86 12.79 14.3 12.79 7.94 0 14.38-6.38 14.38-14.25 0-.64-.05-1.28-.13-1.9 2.18-1.42.69-4.66-1.27-4.24-.98-2.03-2.43-3.8-4.21-5.15.91-.09 1.84-.19 2.77-.29 5.51-.63 11.27-1.58 17.01-2.79h.05c6.87-.85 21.46 6.35 26.05 10.79-1.64 5.25-2.82 10.69-3.62 16.41-6.57 3.3-11.08 10.11-11.08 17.97 0 11.1 9 20.1 20.11 20.1Z"/><circle class="cls-5" cx="91.46" cy="110.38" r="3.75"/><path class="cls-5" d="M91.38 87.19c1.13.22 1.65 2.3 1.17 4.66-.5 2.35-1.8 4.09-2.94 3.87-1.12-.22-1.65-2.31-1.16-4.66.48-2.37 1.79-4.09 2.93-3.87Z"/><path class="cls-5" d="M85.37 61.93c10.62 0 15.43 12.46 13.28 25.99-.21 1.29-.38 2.6-.53 3.92-.96 6.01-2.74 9.24-4.9 12.03-1.43-.6-3-.92-4.64-.92-5 0-9.3 3.01-11.19 7.31-9.04-.94-15.05-7.61-15.45-17.62-.07-1.65 0-3.39.26-5.21 1.84-13.5 10.11-25.5 23.17-25.5Zm9.41 29.27c1.07-5.14-.38-9.75-3.24-10.31-2.86-.55-6.05 3.17-7.12 8.3-1.07 5.14.38 9.75 3.24 10.3 2.86.56 6.04-3.16 7.12-8.29Z"/><path class="cls-5" d="M141.04 94.3c-.48 2.25-1.24 4.48-2.29 6.63-6.83 13.98-22.13 17.54-32.38 11.26-9.06-5.56-8.9-14.46-8.25-20.35.15-1.32.32-2.63.53-3.92 2.3-14.18 8.62-25.86 23.89-24.61 13.24 1.08 21.61 16.43 18.5 30.99Zm-19.97 2.77c.25-.73-.14-1.53-.87-1.77-4.64-1.57-10.55-1.56-14.3-1.35 3.6-3.29 8.54-5.12 11.31-5.37.77-.07 1.34-.75 1.27-1.52-.07-.77-.76-1.34-1.52-1.27-3.58.32-11.82 3.06-15.47 9.12-.28.46-.27 1.04.02 1.49.29.45.8.69 1.34.63 4.65-.57 11.74-.67 16.45.92.15.05.3.07.45.07.58 0 1.13-.37 1.32-.95Z"/><path class="cls-9" d="M150.05 58.95c38.16 11.99 62.72 43.93 62.95 79.53.16 24.53-10.68 47.22-25.87 62.7s0 0 0 .02c-3.29 4.28-12.96 10.16-25.96 15.23 64.89-52.35 23.61-116.97-20.11-122.13 3.11-14.56-5.26-29.91-18.5-30.99-15.27-1.25-21.59 10.43-23.89 24.61 2.15-13.53-2.66-25.98-13.28-25.99-13.06 0-21.33 12-23.17 25.5-.25 1.82-.33 3.56-.26 5.21h-.03c-28.01 2.86-42.03 30.49-42.88 44.79 1.2-52.97 49.38-88.42 106.71-83.21 3.82.34 7.69.87 11.59 1.59 4.39.81 8.63 1.86 12.72 3.14Z"/><path class="cls-4" d="M136.32 26.62c1.37.96 3.22 1.81 5.35 2.42l-1.07 5.45c-19.55-5.34-33.96-14.37-32.38-20.42 1.61-6.18 19.29-6.91 39.5-1.62 20.2 5.28 35.27 14.58 33.65 20.76-1.54 5.91-17.8 6.83-36.89 2.27l1.12-5.67c2.13.25 4.11.18 5.71-.15.02 0 .03-.01.05-.01 2.21-.46 3.72-1.43 3.98-2.77.51-2.62-3.89-5.68-9.83-6.85-5.94-1.16-11.17 0-11.69 2.63-.25 1.31.72 2.73 2.5 3.96Z"/><path class="cls-5" d="M168.93 178.52c7.54-14.54 9.88-27.69 6.73-28.21-11.51-1.9-105.5 9.88-126.04 10.12-2.71.03-5.25-.1-7.61-.4 10.08 18.8 25.26 36.12 41.9 46.75 12.22 7.81 25.24 12.01 37.59 10.53 22.63-2.72 38.61-21.71 47.43-38.79ZM141.04 94.3c43.72 5.16 85 69.78 20.11 122.13-11.31 4.42-25.14 8.22-39.47 9.83-22.85 2.56-45.78-.99-55.17-5.53C43.64 205.07 19 172.95 19 139.48v-.02c0-.64.01-1.27.02-1.9.01-.04.01-.09.01-.13.85-14.3 14.87-41.93 42.88-44.79h.03c.4 10.01 6.41 16.68 15.45 17.62a12.16 12.16 0 0 0-1.03 4.91c0 6.74 5.47 12.21 12.22 12.21s12.22-5.47 12.22-12.21c0-5.11-3.13-9.48-7.58-11.3 2.16-2.79 3.94-6.02 4.9-12.03-.65 5.89-.81 14.79 8.25 20.35 10.25 6.28 25.55 2.72 32.38-11.26 1.05-2.15 1.81-4.38 2.29-6.63Z"/><path class="cls-13" d="M144.81 23.6c4.93.97 8.67 3.08 8.35 4.71-.12.6-.78 1.05-1.8 1.34-.02 0-.03.01-.05.01-1.6.33-3.58.4-5.71.15l.35-1.8c-.56-1.05-3.2-1.37-3.93-.77l-.35 1.8c-2.13-.61-3.98-1.46-5.35-2.42-.76-.62-1.14-1.25-1.03-1.82.32-1.63 4.58-2.17 9.52-1.2Zm-3.23 26.67c4.77 1.61 8.12 5.06 8.47 8.68-4.09-1.28-8.33-2.33-12.72-3.14-3.9-.72-7.77-1.25-11.59-1.59 1.76-3.41 6.56-5.38 11.93-4.81.53.05 1.06.13 1.59.24.81.16 1.58.36 2.32.61Z"/><path class="cls-13" d="m145.6 29.81-1.12 5.67-2.9 14.78c-.74-.25-1.51-.45-2.32-.61-.53-.11-1.06-.19-1.59-.24l2.93-14.92 1.07-5.45.35-1.8c.73-.6 3.37-.28 3.93.77l-.35 1.8Z"/><path class="cls-2" d="M94.78 91.19c-1.07 5.14-4.26 8.85-7.12 8.3-2.86-.55-4.31-5.16-3.24-10.3 1.07-5.14 4.26-8.85 7.12-8.3 2.86.55 4.31 5.16 3.24 10.3Z"/><path class="cls-2" d="M92.54 91.85c-.49 2.36-1.8 4.09-2.93 3.87-1.13-.22-1.65-2.31-1.16-4.66.49-2.36 1.8-4.09 2.93-3.87 1.13.22 1.65 2.31 1.16 4.66Zm27.21 6.17c-.15 0-.3-.02-.45-.07-4.71-1.59-11.8-1.49-16.45-.92-.54.07-1.05-.18-1.34-.63s-.3-1.02-.02-1.48c3.65-6.06 11.89-8.8 15.48-9.12.76-.07 1.45.5 1.52 1.27.07.77-.5 1.45-1.27 1.52-2.77.25-7.71 2.08-11.31 5.37 3.75-.22 9.66-.22 14.3 1.34.73.25 1.13 1.04.88 1.77-.2.58-.74.95-1.33.95Z"/><path class="cls-1" d="M42.37 123.31c-12.38-4.75-20.38.88-22.5 14s8.38 23.38 29.75 23.12c20.53-.24 114.52-12.02 126.04-10.12 6.83 1.12-12.25 61.97-54.17 67-29.17 3.5-62-24.67-79.49-57.27"/><path class="cls-1" d="M88.58 127.38c-.58 7.26-.97 24.11-.11 29.94m-29.64-46.01c-8.83-6.83-27-15.33-34.5-18.67m33 36.67c-13.17-1.67-36.17-4.67-43.33-5.17m-1.67 28.5c6-1.17 33.5-3.67 44.33-3.67m68.51-30.66c11.17-4.33 35.22-11.17 51.86-14.17m-51.86 28.5c12.33-1.83 43.5-3.83 56.33-3.33m-56.33 17.16c7.67.67 37.01 7.44 53.17 12.33M140.6 34.49c-19.56-5.33-33.96-14.37-32.38-20.42 1.61-6.18 19.29-6.91 39.5-1.62 20.2 5.29 35.27 14.58 33.65 20.76-1.54 5.91-17.79 6.83-36.89 2.27"/><path class="cls-1" d="M136.43 26.7c-.83-.65-1.26-1.31-1.14-1.9.32-1.63 4.58-2.17 9.52-1.2 4.94.97 8.68 3.08 8.35 4.71-.12.61-.79 1.07-1.85 1.35m-37.75-12.85c.28-3.19 3.94-5.31 12.25-5.56m-8.5 7.37c.5-2.3 4.12-4.69 11.12-4.59m-5.06 5.55c.88-2.36 3.58-3.71 8.69-3.96m-1.31 4.5c.2-1.26 2.79-2.52 4.88-2.52m16.74 13.42c3.79.67 6.75-.42 8.58-2.04m-5.33 3.54c2.67.25 7.42-.62 9.12-2.25m-4.78 4.33c3.42.38 9.42-.83 10.79-2.75m-6.88 4.79c5.67-.12 10.79-1.12 12.75-4.25m-53.25 211.27c.08.62.13 1.26.13 1.9 0 7.87-6.44 14.25-14.38 14.25-7.44 0-13.56-5.61-14.3-12.79m.18-4.1c1.25-6.61 7.1-11.61 14.13-11.61 5.72 0 10.66 3.31 12.98 8.11"/><path class="cls-1" d="M95 242.93c-2.27-.53-3.99 2.56-.18 4 7.49 2.83 23.62-.06 28.55-3.27 2.4-1.56.37-5.32-1.87-4.01-4.62 2.72-18.13 5.22-26.51 3.29Z"/><ellipse class="cls-1" cx="107.75" cy="252.03" rx="4.06" ry="2.56"/><path class="cls-1" d="M108.19 254.57c.19 1.49.83 3.97 2.01 5.2"/><circle class="cls-1" cx="26.44" cy="260.25" r="18.94"/><path class="cls-1" d="M189.29 276.35c0 11.1-9 20.11-20.1 20.11s-20.11-9-20.11-20.11 9-20.11 20.11-20.11 20.1 9 20.1 20.11Z"/><path class="cls-1" d="M174.02 219.66c-7.56 12.1-11.87 24.57-13.86 38.72m43.09-15.82c-2.62 8.62-10.92 20.89-15.27 26.63m-38.19 1.86c-9.96 3.09-40.67 6.38-58.38 2.01 6.84 23.4 38.76 41.92 66.87 20.18m30.57 37.48C186 344.98 201.5 363.81 222 357.48c23.64-7.3 28.33-31.5 24.5-51.17-2.02-10.35-9.72-21.01-18.64-20.93"/><path class="cls-1" d="M139.68 327.78c-3.61 6.26 0 35.83 23.19 34.91 15.62-.62 26.63-15.25 25.13-32.5"/><path d="M32.71 406.67c-.56-.38-.9-.92-1.02-1.6s.03-1.3.44-1.87c3.55-4.98 5.38-7.52 5.46-7.64 1.27-1.84 2.19-3.15 2.75-3.95.56-.8 1.21-1.67 1.96-2.6.74-.93 1.27-1.53 1.58-1.8.31-.27.75-.55 1.31-.84.56-.3 1.04-.46 1.44-.49.4-.03.97-.04 1.71-.04 1.36 0 2.45.18 3.27.53.81.36 1.67.95 2.55 1.78.89.83 2.53 2.55 4.93 5.15 5.75 6.19 9.97 10.66 12.66 13.42.5.5.76 1.11.76 1.82s-.25 1.32-.76 1.82l-1.78 1.82c-.5.5-1.09.75-1.75.75s-1.25-.24-1.75-.71a444.98 444.98 0 0 1-12.75-13.68c-1.84-2.04-3.08-3.38-3.73-4.02-.65-.64-1.2-.96-1.64-.96-.36 0-.81.36-1.35 1.07-.55.71-1.53 2.12-2.95 4.22-1.81 2.73-3.79 5.55-5.95 8.49-.42.56-.97.9-1.67 1.02s-1.33-.03-1.89-.44l-1.82-1.24Zm27.23-26.66c1.39-1.39 3.07-2.09 5.02-2.09s3.63.7 5.02 2.09c1.39 1.39 2.09 3.07 2.09 5.02s-.7 3.63-2.09 5.02c-1.39 1.39-3.07 2.09-5.02 2.09s-3.63-.7-5.02-2.09c-1.39-1.39-2.09-3.07-2.09-5.02s.7-3.63 2.09-5.02Zm2.82 7.22c.61.61 1.34.91 2.2.91s1.59-.3 2.2-.91c.61-.61.91-1.34.91-2.2s-.3-1.59-.91-2.2c-.61-.61-1.34-.91-2.2-.91s-1.59.3-2.2.91c-.61.61-.91 1.34-.91 2.2s.3 1.59.91 2.2Zm13.57 14.73c-.68 0-1.27-.25-1.78-.75-.5-.5-.76-1.1-.76-1.78v-2.13c0-.68.25-1.27.76-1.78s1.1-.76 1.78-.76h31.99c.68 0 1.27.25 1.78.76.5.5.76 1.1.76 1.78v2.13c0 .68-.25 1.27-.76 1.78s-1.1.75-1.78.75H76.33Zm41.84-4.44c-.68-.12-1.21-.47-1.6-1.04-.39-.58-.5-1.21-.36-1.89l.27-1.24c.15-.68.52-1.22 1.11-1.62.59-.4 1.23-.54 1.91-.42 2.58.47 5.83 1.11 9.77 1.91.68.15 1.21.51 1.6 1.09s.5 1.21.36 1.89l-.27 1.29a2.41 2.41 0 0 1-1.11 1.58c-.59.37-1.23.48-1.91.33-3.08-.62-6.34-1.24-9.77-1.87Zm31.9-9.51c.68.12 1.22.47 1.62 1.04.4.58.53 1.19.38 1.84-1.9 8.12-5.24 14.15-10.04 18.1s-11.77 6.46-20.93 7.53c-.71.09-1.35-.08-1.91-.51-.56-.43-.9-1-1.02-1.71l-.31-1.82c-.12-.65.04-1.25.47-1.8s.98-.87 1.67-.96c7.7-.89 13.44-2.82 17.22-5.8 3.78-2.98 6.45-7.71 8.02-14.19.15-.68.52-1.22 1.11-1.62.59-.4 1.23-.54 1.91-.42l1.82.31Zm-18.3-5.51c.68.12 1.21.47 1.6 1.07.38.59.5 1.23.36 1.91l-.27 1.38c-.12.68-.48 1.21-1.09 1.6-.61.39-1.25.5-1.93.36-3.97-.8-7.35-1.44-10.13-1.91-.65-.12-1.18-.46-1.58-1.02-.4-.56-.53-1.18-.38-1.87l.27-1.38c.12-.68.47-1.23 1.07-1.64.59-.41 1.23-.56 1.91-.44 1.96.33 5.35.98 10.17 1.96Zm14.97 2.71c-.56.27-1.15.3-1.75.11a2.25 2.25 0 0 1-1.36-1.13c-.15-.27-.36-.66-.62-1.18-.27-.52-.47-.91-.62-1.18-.3-.56-.35-1.15-.16-1.75.19-.61.57-1.06 1.13-1.35.59-.3 1.19-.34 1.8-.13.61.21 1.07.61 1.4 1.2.15.27.36.66.62 1.18.27.52.47.91.62 1.18.29.59.34 1.19.13 1.78-.21.59-.61 1.02-1.2 1.29Zm8-1.82c-.21.59-.61 1.04-1.2 1.33-.59.3-1.19.34-1.8.13-.61-.21-1.07-.61-1.4-1.2-.27-.53-.7-1.33-1.29-2.4-.3-.59-.35-1.19-.16-1.8.19-.61.59-1.06 1.18-1.35.59-.3 1.21-.34 1.87-.13.65.21 1.13.59 1.42 1.16.15.3.36.73.64 1.29l.6 1.2c.3.59.34 1.19.13 1.78Zm8.93 3.67c-.76 0-1.42-.28-1.97-.84-.56-.56-.84-1.22-.84-1.97v-1.33c0-.76.28-1.41.84-1.97.56-.56 1.22-.84 1.97-.84h22.02c.76 0 1.42.28 1.97.84.56.56.84 1.22.84 1.97v1.33c0 .76-.28 1.42-.84 1.97-.56.56-1.22.84-1.97.84h-6.32c-.26 0-.39.13-.39.4v25.87c0 .76-.28 1.42-.84 1.97-.56.56-1.22.84-1.97.84h-2.96c-.76 0-1.42-.28-1.97-.84-.56-.56-.84-1.22-.84-1.97v-25.87c0-.26-.13-.4-.39-.4h-6.32Zm55.8 24.66c-3.03 3.28-7.14 4.91-12.34 4.91s-9.31-1.64-12.34-4.91c-3.03-3.27-4.54-7.81-4.54-13.6s1.51-10.33 4.54-13.6c3.03-3.27 7.14-4.91 12.34-4.91s9.31 1.64 12.34 4.91c3.03 3.28 4.54 7.81 4.54 13.6s-1.51 10.33-4.54 13.6Zm-4.05-13.6c0-7.73-2.76-11.6-8.29-11.6s-8.29 3.87-8.29 11.6 2.76 11.6 8.29 11.6 8.29-3.87 8.29-11.6Zm16.28 18.02c-.76 0-1.42-.28-1.97-.84-.56-.56-.84-1.22-.84-1.97v-30.17c0-.79.26-1.5.79-2.12.53-.62 1.18-.97 1.97-1.04 2.8-.26 5.5-.4 8.1-.4 10.53 0 15.8 3.92 15.8 11.75 0 4.25-1.23 7.46-3.68 9.65-2.45 2.19-6.05 3.28-10.79 3.28-1.25 0-2.42-.05-3.5-.15-.3 0-.44.13-.44.39v8.79c0 .76-.28 1.42-.84 1.97-.56.56-1.22.84-1.97.84h-2.62Zm5.43-29.42v10.76c0 .23.15.38.44.44 1.12.13 2.01.2 2.67.2 2.37 0 4.2-.55 5.5-1.65 1.3-1.1 1.95-2.64 1.95-4.62 0-3.92-2.49-5.88-7.45-5.88-.82 0-1.73.08-2.72.25-.26.07-.39.23-.39.49Z" style="fill:#2096d5;stroke-width:0"/></svg>